PathFileType	4	(X/Y/Z)	Run_200 02
DataRate	CameraRate	NumFrames	NumMarkers	Units	OrigDataRate	OrigDataStartFrame	OrigNumFrames
100	100	7	42	mm	100	277	128
Frame#	Time	LASI			RASI			LPSI			RPSI			RTH1			RTH2			RTH3			LTH1			LTH2			LTH3			RTB1			RTB2			RTB3			LTB1			LTB2			LTB3			RCAL			RTOE			RMT5			LCAL			LTOE			LMT5			LACR			RACR			CLAV			C7			RUA1			RUA2			RUA3			RLEL			RMEL			LUA1			LUA2			LUA3			LLEL			LMEL			RFAsuperior			RFAradius			RFAulna			LFAsuperior			LFAradius			LFAulna			
		X1	Y1	Z1	X2	Y2	Z2	X3	Y3	Z3	X4	Y4	Z4	X5	Y5	Z5	X6	Y6	Z6	X7	Y7	Z7	X8	Y8	Z8	X9	Y9	Z9	X10	Y10	Z10	X11	Y11	Z11	X12	Y12	Z12	X13	Y13	Z13	X14	Y14	Z14	X15	Y15	Z15	X16	Y16	Z16	X17	Y17	Z17	X18	Y18	Z18	X19	Y19	Z19	X20	Y20	Z20	X21	Y21	Z21	X22	Y22	Z22	X23	Y23	Z23	X24	Y24	Z24	X25	Y25	Z25	X26	Y26	Z26	X27	Y27	Z27	X28	Y28	Z28	X29	Y29	Z29	X30	Y30	Z30	X31	Y31	Z31	X32	Y32	Z32	X33	Y33	Z33	X34	Y34	Z34	X35	Y35	Z35	X36	Y36	Z36	X37	Y37	Z37	X38	Y38	Z38	X39	Y39	Z39	X40	Y40	Z40	X41	Y41	Z41	X42	Y42	Z42	

274	3.87	966.692185	971.493077	-446.037463	968.92261	966.761118	-203.715543	803.166426	1010.301135	-370.299177	800.127038	1002.972488	-272.998955	970.325056	733.418947	-146.363929	1058.714729	675.706055	-154.790951	1035.736789	572.1622599999999	-169.355054	937.20714	770.295074	-489.75656	992.394283	666.484716	-466.97856	934.362755	556.978393	-449.686018	998.564827	391.112468	-229.638472	917.083812	369.030816	-182.937543	842.923942	285.869578	-243.117735	931.609022	356.75949	-370.705926	854.894291	298.511936	-429.543734	827.05499	195.389358	-351.878946	700.785264	302.018855	-258.225404	815.691102	113.504134	-275.677872	767.111839	131.191472	-172.586991	673.748291	111.496618	-340.81957	891.152882	67.60992299999999	-329.022521	845.719827	48.468751	-429.802216	970.9227059999999	1439.500937	-484.241816	970.221859	1442.658328	-180.910767	1050.190846	1363.590431	-314.042616	920.3048659999999	1475.961948	-330.419558	895.523956	1351.219436	-85.99202699999999	814.212211	1315.761492	-114.974432	826.714478	1252.842935	-46.590181	778.55404	1203.047714	-18.411814	747.1186729999999	1186.972317	-87.75731399999999	921.971101	1326.956309	-573.177294	868.5873350000001	1262.876177	-551.131846	912.119115	1232.59893	-618.6116960000001	895.51589	1152.357817	-652.6828839999999	863.777088	1120.828983	-591.689957	870.938994	1130.755254	-22.445489	969.713901	1061.449867	-95.92465900000001	921.400739	1016.499627	-66.59320099999999	1004.98892	1159.708202	-604.206757	1098.13064	1129.570109	-498.384677	1111.44165	1089.713189	-551.662451	
275	3.88	965.585684	973.135906	-446.624619	968.975096	970.369331	-204.160994	802.94134	1013.634169	-370.384745	800.001233	1006.956046	-272.778901	974.296819	739.792629	-144.84729	1063.916401	684.157125	-154.289538	1042.985992	579.836213	-168.668623	930.604141	771.301571	-488.598475	981.926926	665.535669	-466.051136	920.428329	557.982169	-448.655066	1012.851156	393.718101	-230.15711	931.981583	369.046511	-183.743585	863.158213	281.246515	-244.41545	913.531934	357.198433	-370.852896	836.398253	300.183967	-429.253379	808.252579	197.188782	-352.028895	719.97274	288.367837	-260.4471	848.099954	108.395928	-275.606109	797.59846	122.858199	-173.928412	654.499013	113.864385	-341.325468	871.076907	67.527227	-329.226808	825.53308	48.480494	-430.095477	972.817447	1443.963335	-482.689866	969.464973	1445.956176	-179.822223	1050.241206	1367.035611	-312.449638	920.857087	1479.390194	-329.627067	891.1592900000001	1356.511394	-86.00844600000001	810.045964	1322.529211	-117.593759	819.3855589999999	1259.563448	-48.420572	769.721254	1210.699095	-21.597876	739.439169	1195.457133	-91.676559	926.161143	1331.26815	-572.61163	872.6455979999999	1267.225671	-553.676509	919.198972	1236.589784	-618.838255	903.694205	1155.886224	-652.521295	871.031426	1124.331599	-592.04839	860.91338	1137.106535	-24.299402	959.555148	1066.451747	-96.149844	909.597011	1021.667471	-68.668223	1011.706594	1166.507081	-602.101677	1103.396635	1140.722628	-494.096545	1118.738732	1099.432102	-545.625223	
276	3.89	964.672001	974.89847	-447.170095	969.393242	974.705236	-204.564563	802.942602	1017.415975	-370.642857	799.913199	1011.692837	-272.444466	977.9676020000001	746.632932	-143.179545	1068.456597	692.67475	-153.796883	1049.125866	587.659968	-167.876919	923.889455	772.9429260000001	-487.241754	971.422521	665.786082	-465.009891	906.622149	559.945877	-447.462467	1026.311484	397.289144	-230.173515	946.398738	368.73616	-184.510594	883.7713199999999	276.064773	-245.599614	895.2715449999999	358.685043	-370.499147	817.914853	302.709066	-428.765677	789.4632810000001	199.602128	-352.11416	740.419037	273.5436	-263.318794	881.50112	103.456632	-275.419856	828.679673	114.317543	-175.260853	635.806161	117.438362	-341.87654	851.046069	67.28386999999999	-329.28553	805.3835350000001	48.471509	-430.431857	974.937326	1448.871863	-481.035985	968.7453379999999	1449.731347	-178.768375	1050.501015	1370.911471	-310.752472	921.621684	1483.206248	-328.821505	886.971769	1362.508057	-86.234962	806.2894690000001	1329.731654	-119.995602	812.844309	1266.725939	-50.191219	761.769861	1218.774674	-24.682678	732.415512	1204.295464	-95.352952	929.735141	1336.079263	-571.83982	876.283439	1272.199418	-555.474563	925.853752	1241.410168	-619.14715	911.079943	1160.087974	-651.94457	877.5543290000001	1128.660191	-591.975317	851.86307	1144.108311	-26.265109	950.2691	1072.359494	-96.682132	898.546287	1027.995647	-70.83858600000001	1017.640967	1173.736874	-599.678779	1107.592161	1152.4074	-489.736245	1124.964803	1109.597503	-539.412069	
277	3.9	963.991428	976.841919	-447.604347	970.019087	979.58709	-204.839607	803.157376	1021.609814	-370.78532	800.02055	1017.04893	-272.020958	981.168368	753.668358	-141.502065	1072.224037	701.021847	-153.32971	1054.077362	595.380217	-167.008662	917.6330369999999	775.1913039999999	-485.637401	961.7119279999999	667.046651	-463.503008	893.300078	562.872743	-446.239201	1038.900224	401.394163	-229.866128	960.411293	367.855236	-185.319401	904.818791	270.532234	-246.689247	877.222548	361.275403	-369.865837	799.677384	306.279782	-428.272935	771.00548	202.779514	-352.251199	762.182757	257.877442	-266.67541	915.939423	99.03685900000001	-275.351052	860.484599	105.843203	-176.634098	617.755956	122.21053	-342.354699	831.247405	67.019178	-329.182849	785.250897	48.375205	-430.681698	977.159045	1454.082527	-479.362645	968.053841	1453.899075	-177.774515	1051.04567	1375.185297	-308.981661	922.455658	1487.307283	-327.909036	883.2402070000001	1368.97833	-86.60742399999999	803.0415369999999	1337.241912	-122.137973	807.175554	1274.148585	-51.920411	754.77227	1227.024617	-27.618247	726.0275820000001	1213.403844	-98.757493	933.079595	1341.294273	-571.023545	879.727974	1277.61988	-556.490615	931.961617	1246.818302	-619.560786	917.66359	1164.798386	-651.228414	883.321629	1133.534993	-591.554305	843.727727	1151.211815	-28.180454	941.864705	1078.690508	-97.40432699999999	888.591739	1034.81767	-73.18837499999999	1022.83054	1181.137163	-597.069335	1110.718821	1164.315454	-485.393454	1130.227546	1119.930551	-533.38013	
278	3.91	963.640073	978.997468	-447.744876	970.71997	984.766832	-204.927076	803.663079	1026.147557	-370.766787	800.466111	1022.827174	-271.677653	983.745708	760.618667	-139.927982	1075.118942	708.941668	-152.885586	1057.722163	602.683311	-166.202832	912.205416	777.929652	-483.878089	953.101874	668.969511	-461.419611	880.670968	566.669559	-445.105591	1050.623681	405.37522	-229.511788	974.076997	366.268545	-186.199692	926.315326	264.882561	-247.717613	859.791522	364.906518	-369.290884	781.902901	310.975102	-427.970713	753.222609	206.823287	-352.498297	785.245388	241.682865	-270.339564	951.240285	95.37594799999999	-275.396049	893.192919	97.833127	-178.044218	600.4388709999999	128.033538	-342.68123	811.802567	66.763571	-328.98223	765.066849	48.216703	-430.798585	979.397405	1459.465379	-477.720371	967.4625160000001	1458.330076	-176.830422	1051.825879	1379.81447	-307.184103	923.325737	1491.607826	-326.932013	880.169581	1375.648525	-86.955387	800.37969	1344.922355	-124.000025	802.356633	1281.624668	-53.603147	748.687171	1235.262359	-30.411703	720.371972	1222.653259	-101.937421	936.466559	1346.852139	-570.19951	883.085212	1283.333077	-556.8884849999999	937.319561	1252.53389	-619.772504	923.451133	1169.850026	-650.5039389999999	888.398517	1138.714025	-590.907305	836.428979	1158.187097	-30.005937	934.385004	1085.135667	-98.215121	880.03244	1041.603203	-75.75464100000001	1027.30006	1188.608241	-594.528947	1112.967691	1176.07127	-481.265262	1134.624963	1130.266037	-527.808667	
279	3.92	963.726568	981.356726	-447.397014	971.496974	990.0668930000001	-204.789475	804.497582	1030.92418	-370.627574	801.232204	1028.818468	-271.504682	985.550518	767.249028	-138.525154	1077.046245	716.159766	-152.450909	1059.857303	609.335213	-165.622858	907.653273	781.060223	-482.220858	945.37003	671.31586	-459.050494	868.815961	571.152065	-444.14819	1061.478932	408.852655	-229.262426	987.459673	363.988465	-187.124674	948.224789	259.356163	-248.723668	843.238834	369.405894	-369.078391	764.764181	316.640231	-427.952433	736.337846	211.688833	-352.937519	809.558814	225.228275	-274.14211	987.098425	92.699945	-275.646491	926.9683	90.73302700000001	-179.492036	583.9295509999999	134.765573	-342.922013	792.657291	66.374736	-328.786387	744.818144	48.045661	-430.828146	981.632017	1464.898135	-476.115766	967.056438	1462.864447	-175.923504	1052.729935	1384.713685	-305.406453	924.276866	1496.03162	-326.005763	877.766166	1382.281056	-87.080984	798.3443	1352.609085	-125.601228	798.292284	1288.977448	-55.226294	743.412882	1243.326243	-33.108208	715.664986	1231.808501	-105.032496	939.9622000000001	1352.653671	-569.375707	886.317851	1289.216224	-556.939262	941.768836	1258.29841	-619.306528	928.45676	1175.077918	-649.667274	892.848369	1144.018832	-590.117668	829.911516	1164.974959	-31.794795	927.857353	1091.517688	-99.09208099999999	872.859055	1048.13004	-78.48310499999999	1031.072788	1196.104154	-592.203257	1114.563941	1187.293041	-477.542945	1138.221034	1140.54838	-522.721704	
280	3.93	964.308841	983.90807	-446.524573	972.368288	995.3659	-204.40974	805.611031	1035.805385	-370.329328	802.199401	1034.812405	-271.361067	986.477322	773.385446	-137.306788	1077.957857	722.437011	-151.984322	1060.303591	615.244133	-165.343579	903.785491	784.516857	-480.83915	938.13048	674.020544	-456.912771	857.749206	576.099364	-443.443443	1071.406479	411.833538	-229.12669	1000.618609	361.156638	-188.047901	970.446792	254.17507	-249.738802	827.647594	374.540408	-369.42559	748.378742	322.984298	-428.255228	720.420089	217.171582	-353.750661	835.083117	208.781818	-277.877974	1023.198273	91.27530899999999	-276.397156	961.866488	84.860237	-181.087045	568.296383	142.319427	-343.277138	773.648894	65.715512	-328.704174	724.621494	47.885905	-430.880288	983.88987	1470.26546	-474.537932	966.889013	1467.357401	-175.04706	1053.692434	1389.749491	-303.677362	925.365067	1500.494167	-325.198787	875.927558	1388.700677	-86.894295	796.946674	1360.132144	-126.972603	794.878932	1296.091197	-56.795202	738.866732	1251.075662	-35.751144	712.022686	1240.586374	-108.178139	943.476052	1358.520682	-568.576987	889.303817	1295.171533	-556.878117	945.287778	1263.914584	-617.831009	932.697852	1180.340516	-648.564306	896.675844	1149.331017	-589.2025159999999	824.1727079999999	1171.52453	-33.602934	922.272261	1097.720172	-100.059524	866.8031559999999	1054.405891	-81.260577	1034.175219	1203.497931	-590.058267	1115.70178	1197.742613	-474.133653	1141.068187	1150.668199	-517.959276	
